<svg xmlns="http://www.w3.org/2000/svg" viewBox="0 0 115.32 37.86"><g id="Layer_2" data-name="Layer 2"><g id="Layer_1-2" data-name="Layer 1"><path d="M7.74,23.46l-5.22.06v14H0V0H8.4c9.48,0,14.34,4.44,14.34,11.28C22.74,19.26,17,23.34,7.74,23.46ZM8.4,2.28H2.52v19l5.22-.06c7.8-.12,12.36-2.94,12.36-9.84C20.1,5.7,15.78,2.28,8.4,2.28Z" style="fill:#1d1d1b"/><path d="M34.56,37.5V0h2.52V37.5Z" style="fill:#1d1d1b"/><path d="M77.1,0h2.4V37.86H76.74L53.88,3.48v34h-2.4V0h2.94L77.1,34.08Z" style="fill:#1d1d1b"/><path d="M93.84,37.5V0h21.48V2.28h-19V17.64H112.2v2.22H96.36V35.22h19V37.5Z" style="fill:#1d1d1b"/></g></g></svg>