<svg xmlns="http://www.w3.org/2000/svg" viewBox="0 0 116.75 57.66"><g id="Layer_2" data-name="Layer 2"><g id="Layer_1-2" data-name="Layer 1"><path d="M9.17,23.46,4,23.52v14H1.43V0h8.4c9.48,0,14.34,4.44,14.34,11.28C24.17,19.26,18.41,23.34,9.17,23.46ZM9.83,2.28H4v19l5.22-.06c7.8-.12,12.36-2.94,12.36-9.84C21.53,5.7,17.21,2.28,9.83,2.28Z" style="fill:#1d1d1b"/><path d="M36,37.5V0h2.52V37.5Z" style="fill:#1d1d1b"/><path d="M78.53,0h2.4V37.86H78.17L55.31,3.48v34h-2.4V0h2.94L78.53,34.08Z" style="fill:#1d1d1b"/><path d="M95.27,37.5V0h21.48V2.28h-19V17.64h15.84v2.22H97.79V35.22h19V37.5Z" style="fill:#1d1d1b"/><path d="M3.07,53.79l.06-.26h.59a4.29,4.29,0,0,0,1.62-.27,2.65,2.65,0,0,0,1.07-.75A3,3,0,0,0,7,51.4,4.56,4.56,0,0,0,7.18,50a1.51,1.51,0,0,0-.39-1.14,1.81,1.81,0,0,0-1.26-.37,1.15,1.15,0,0,0-.81.23,2,2,0,0,0-.42.89L2.59,56.1a3.59,3.59,0,0,0-.12.64.34.34,0,0,0,.18.35,1.5,1.5,0,0,0,.7.13l-.05.26c-.2,0-.44,0-.73,0H.73a6.91,6.91,0,0,0-.73,0l.05-.26a2.6,2.6,0,0,0,.69-.11.63.63,0,0,0,.39-.31,2.46,2.46,0,0,0,.26-.7l1.72-6.45A2.36,2.36,0,0,0,3.22,49a.42.42,0,0,0-.2-.36,1.55,1.55,0,0,0-.68-.11l.07-.26.71,0H5.9a3,3,0,0,1,1.95.54,1.75,1.75,0,0,1,.64,1.42,2.88,2.88,0,0,1-.62,1.81,4,4,0,0,1-1.72,1.26,6.57,6.57,0,0,1-2.56.47Z" style="fill:#1d1d1b"/><path d="M12.26,57.48H11.13l1.56-5.58a1.44,1.44,0,0,0,.08-.62.24.24,0,0,0-.26-.18.64.64,0,0,0-.52.29,4.09,4.09,0,0,0-.5,1l-.17.48h-.24L11.4,52a2,2,0,0,1,.73-1.08,1.7,1.7,0,0,1,.84-.26q.53,0,.66.3a1.17,1.17,0,0,1,.07.71,7.27,7.27,0,0,1-.17.81Zm3.34-6.54a.94.94,0,0,0-.62.28,3.54,3.54,0,0,0-.65.8,11.36,11.36,0,0,0-.66,1.27c-.22.49-.44,1-.65,1.63s-.42,1.24-.62,1.93l.33-1.66c.28-.85.55-1.56.8-2.15a8.26,8.26,0,0,1,.73-1.41,2.68,2.68,0,0,1,.75-.78,1.5,1.5,0,0,1,.81-.24.77.77,0,0,1,.57.21.76.76,0,0,1,.2.53.88.88,0,0,1-.28.67.86.86,0,0,1-.63.27.57.57,0,0,1-.37-.12.43.43,0,0,1-.15-.35.78.78,0,0,1,.17-.52,1,1,0,0,1,.41-.31.09.09,0,0,0-.06,0Z" style="fill:#1d1d1b"/><path d="M19.66,54.53c.48-.17.92-.33,1.32-.49a4.26,4.26,0,0,0,.94-.51,2.94,2.94,0,0,0,.74-.91,2.58,2.58,0,0,0,.27-1.17,1.52,1.52,0,0,0-.05-.49.18.18,0,0,0-.16-.1,1.41,1.41,0,0,0-.88.44,5,5,0,0,0-.91,1.17,8.1,8.1,0,0,0-.71,1.61,6.13,6.13,0,0,0-.28,1.79,1.42,1.42,0,0,0,.25,1,.78.78,0,0,0,.65.29,2.08,2.08,0,0,0,1-.28,3.15,3.15,0,0,0,1-1l.21.11a4.37,4.37,0,0,1-.65.83,3.6,3.6,0,0,1-.9.66,2.33,2.33,0,0,1-1.06.25,1.7,1.7,0,0,1-1.26-.46,1.86,1.86,0,0,1-.46-1.37,4.42,4.42,0,0,1,.21-1.26,7.15,7.15,0,0,1,.59-1.39,6.39,6.39,0,0,1,.92-1.28A4.57,4.57,0,0,1,21.62,51,2.93,2.93,0,0,1,23,50.61a1.09,1.09,0,0,1,.68.22.75.75,0,0,1,.28.64,1.71,1.71,0,0,1-.3,1,3.69,3.69,0,0,1-.81.82,6.19,6.19,0,0,1-1.09.66c-.39.19-.77.35-1.14.49s-.7.25-1,.34Z" style="fill:#1d1d1b"/><path d="M28.31,57.48H27.18l1.56-5.58a1.67,1.67,0,0,0,.07-.3.82.82,0,0,0,0-.35c0-.1-.11-.15-.25-.15a.66.66,0,0,0-.52.29,3.81,3.81,0,0,0-.49,1l-.17.48h-.25l.33-.95a2,2,0,0,1,.72-1.08,1.73,1.73,0,0,1,.85-.26q.52,0,.66.3a1.2,1.2,0,0,1,.08.72,4.69,4.69,0,0,1-.18.8ZM32,52.12a2.37,2.37,0,0,0,.13-.75c0-.22-.12-.34-.36-.34a1.2,1.2,0,0,0-.8.45,5.61,5.61,0,0,0-.88,1.25,14.86,14.86,0,0,0-.87,1.86,21.39,21.39,0,0,0-.74,2.26l.43-2.08A18.35,18.35,0,0,1,30,52.3a4.18,4.18,0,0,1,1-1.3,1.87,1.87,0,0,1,1.13-.39.77.77,0,0,1,.73.32,1.31,1.31,0,0,1,.11.78,5,5,0,0,1-.17.87l-1.32,4.9H30.37Zm3.25,0a2.37,2.37,0,0,0,.13-.75c0-.22-.09-.34-.28-.34-.34,0-.71.27-1.11.8a10.84,10.84,0,0,0-1.2,2.2,31.81,31.81,0,0,0-1.16,3.19l.29-1.67c.34-.9.65-1.66.94-2.29a9.41,9.41,0,0,1,.85-1.53,3,3,0,0,1,.85-.85,1.84,1.84,0,0,1,1-.27.81.81,0,0,1,.74.32,1.23,1.23,0,0,1,.16.76,3.52,3.52,0,0,1-.18.89L35,56.37a1.55,1.55,0,0,0-.09.61c0,.13.13.2.3.2a.67.67,0,0,0,.49-.27,3.57,3.57,0,0,0,.51-1.06l.17-.48h.25l-.33,1a1.88,1.88,0,0,1-.73,1.08,1.67,1.67,0,0,1-.84.26,1,1,0,0,1-.51-.1.75.75,0,0,1-.3-.25,1,1,0,0,1-.1-.62,4.19,4.19,0,0,1,.21-.85Z" style="fill:#1d1d1b"/><path d="M41.91,51.9c.18-.54.12-.8-.18-.8a.63.63,0,0,0-.53.32,4.82,4.82,0,0,0-.5,1l-.18.48h-.25l.34-.95a2,2,0,0,1,.76-1.08,1.76,1.76,0,0,1,.85-.26.81.81,0,0,1,.74.29,1.09,1.09,0,0,1,.12.71,3.8,3.8,0,0,1-.21.82l-1.39,3.94a1.24,1.24,0,0,0-.08.59.26.26,0,0,0,.29.22.68.68,0,0,0,.5-.29,4.42,4.42,0,0,0,.52-1l.18-.48h.24l-.33,1a2.16,2.16,0,0,1-.71,1,1.62,1.62,0,0,1-.89.29.91.91,0,0,1-.76-.26.93.93,0,0,1-.14-.68,4,4,0,0,1,.22-.88Zm.4-3.47a1,1,0,0,1,.35-.58.88.88,0,0,1,.6-.25.62.62,0,0,1,.53.25.65.65,0,0,1,.12.58,1,1,0,0,1-.34.59.93.93,0,0,1-.62.24.61.61,0,0,1-.51-.24A.71.71,0,0,1,42.31,48.43Z" style="fill:#1d1d1b"/><path d="M51.54,53c-.31.87-.61,1.6-.89,2.2a8.55,8.55,0,0,1-.85,1.44,3.09,3.09,0,0,1-.86.79,1.76,1.76,0,0,1-.91.25q-.86,0-1-.57a2.3,2.3,0,0,1,.11-1.39l1.27-3.8a1.49,1.49,0,0,0,.09-.6c0-.14-.13-.2-.3-.2a.67.67,0,0,0-.49.27,3.36,3.36,0,0,0-.51,1.05L47,52.9h-.25l.33-.95a2,2,0,0,1,.72-1.08,1.73,1.73,0,0,1,.85-.26.88.88,0,0,1,.76.27,1,1,0,0,1,.14.68,4.18,4.18,0,0,1-.2.87l-1.23,3.72c-.25.73-.15,1.09.28,1.09a1.26,1.26,0,0,0,.84-.43,5.44,5.44,0,0,0,.9-1.23A13.88,13.88,0,0,0,51,53.7a20.85,20.85,0,0,0,.76-2.38Zm0,3.39a2.05,2.05,0,0,0-.09.58c0,.15.09.23.27.23a.66.66,0,0,0,.52-.31,3.45,3.45,0,0,0,.49-1l.17-.48h.25l-.33,1a1.88,1.88,0,0,1-.73,1.08,1.67,1.67,0,0,1-.84.26.86.86,0,0,1-.39-.09.62.62,0,0,1-.27-.26,1,1,0,0,1-.07-.56,6.81,6.81,0,0,1,.17-.91l1.27-5c.22,0,.43,0,.64-.06a2.33,2.33,0,0,0,.55-.13Z" style="fill:#1d1d1b"/><path d="M57.93,57.48H56.8l1.56-5.58c0-.08,0-.18.07-.3a.81.81,0,0,0,0-.35c0-.1-.11-.15-.25-.15a.66.66,0,0,0-.52.29,4.14,4.14,0,0,0-.49,1L57,52.9h-.25l.33-.95a2,2,0,0,1,.73-1.08,1.67,1.67,0,0,1,.84-.26c.35,0,.57.1.67.3a1.21,1.21,0,0,1,.07.72,4.69,4.69,0,0,1-.18.8Zm3.68-5.36a2.69,2.69,0,0,0,.13-.75c0-.22-.12-.34-.37-.34a1.2,1.2,0,0,0-.8.45,6,6,0,0,0-.88,1.25,14.86,14.86,0,0,0-.87,1.86c-.27.7-.52,1.46-.74,2.26l.43-2.08a18.35,18.35,0,0,1,1.12-2.47,4.34,4.34,0,0,1,1-1.3,1.84,1.84,0,0,1,1.12-.39.76.76,0,0,1,.73.32,1.39,1.39,0,0,1,.12.78,6.09,6.09,0,0,1-.17.87l-1.33,4.9H60Zm3.25,0a2.69,2.69,0,0,0,.13-.75c0-.22-.1-.34-.29-.34-.34,0-.71.27-1.1.8A11.33,11.33,0,0,0,62.39,54a31.81,31.81,0,0,0-1.16,3.19l.3-1.67c.34-.9.65-1.66.94-2.29a8.74,8.74,0,0,1,.84-1.53,3,3,0,0,1,.86-.85,1.78,1.78,0,0,1,1-.27.81.81,0,0,1,.74.32,1.16,1.16,0,0,1,.16.76,4,4,0,0,1-.17.89L64.6,56.37a1.25,1.25,0,0,0-.09.61c0,.13.12.2.3.2a.67.67,0,0,0,.48-.27,3.8,3.8,0,0,0,.52-1.06l.17-.48h.24l-.32,1a1.93,1.93,0,0,1-.73,1.08,1.73,1.73,0,0,1-.85.26,1.08,1.08,0,0,1-.51-.1.72.72,0,0,1-.29-.25.9.9,0,0,1-.11-.62,6.14,6.14,0,0,1,.21-.85Z" style="fill:#1d1d1b"/><path d="M84.62,48.27c-.13.34-.27.75-.41,1.23s-.28,1.07-.43,1.76H83.5a5.26,5.26,0,0,0,.07-1.13,2,2,0,0,0-.2-.79,1.72,1.72,0,0,0-.71-.75,1.94,1.94,0,0,0-1-.26,2.49,2.49,0,0,0-1.31.39,4.9,4.9,0,0,0-1.18,1.07,8.1,8.1,0,0,0-1,1.53,8.75,8.75,0,0,0-.65,1.77,7.06,7.06,0,0,0-.24,1.79,3.09,3.09,0,0,0,.5,1.91,1.66,1.66,0,0,0,1.36.64,3.24,3.24,0,0,0,1.19-.26,3.36,3.36,0,0,0,1.13-.76,3.61,3.61,0,0,0,.6-.82q.25-.48.57-1.23H83c-.22.79-.38,1.42-.5,1.9s-.2.89-.26,1.22H81.9a2.73,2.73,0,0,0,0-.44c0-.2,0-.31-.11-.34s-.17,0-.32.11a7.2,7.2,0,0,1-1.07.6,3.23,3.23,0,0,1-1.39.25,3.1,3.1,0,0,1-2.23-.77A3.07,3.07,0,0,1,76,54.6a6.12,6.12,0,0,1,.28-1.8A7.63,7.63,0,0,1,77.08,51a7,7,0,0,1,1.2-1.5,5.5,5.5,0,0,1,1.57-1.06,4.37,4.37,0,0,1,1.84-.39,2.34,2.34,0,0,1,1.24.26,3.7,3.7,0,0,1,.7.59c.12.12.23.13.34,0a1.8,1.8,0,0,0,.37-.71Z" style="fill:#1d1d1b"/><path d="M86.94,55.62A6,6,0,0,1,87.19,54a6.65,6.65,0,0,1,.72-1.64,4.43,4.43,0,0,1,1.18-1.29,2.72,2.72,0,0,1,1.61-.5,1.72,1.72,0,0,1,1.29.5,2.13,2.13,0,0,1,.49,1.54,5.56,5.56,0,0,1-.25,1.58,6.36,6.36,0,0,1-.72,1.65,4.24,4.24,0,0,1-1.17,1.28,2.75,2.75,0,0,1-1.62.5,1.72,1.72,0,0,1-1.29-.51A2.16,2.16,0,0,1,86.94,55.62Zm3.68-4.75a1.2,1.2,0,0,0-.8.34,3.45,3.45,0,0,0-.7.89,7.83,7.83,0,0,0-.56,1.27,9.75,9.75,0,0,0-.37,1.46,8.11,8.11,0,0,0-.13,1.44,1.52,1.52,0,0,0,.19.86.63.63,0,0,0,.55.27,1.2,1.2,0,0,0,.8-.33,3.37,3.37,0,0,0,.71-.9,7.05,7.05,0,0,0,.56-1.27,8.54,8.54,0,0,0,.36-1.45A8.06,8.06,0,0,0,91.36,52a1.6,1.6,0,0,0-.18-.86A.63.63,0,0,0,90.62,50.87Z" style="fill:#1d1d1b"/><path d="M97.33,57.24a1.09,1.09,0,0,0,.71-.39,5.32,5.32,0,0,0,.82-1.08,9.92,9.92,0,0,0,.77-1.53,11.53,11.53,0,0,0,.56-1.78l-.22,1.4a9.35,9.35,0,0,1-1.49,2.94,2.1,2.1,0,0,1-1.53.86,1,1,0,0,1-.91-.44,1.91,1.91,0,0,1-.31-1.13,5,5,0,0,1,.21-1.36,7.78,7.78,0,0,1,.58-1.46,7.19,7.19,0,0,1,.85-1.33,4.28,4.28,0,0,1,1-1,2.12,2.12,0,0,1,1.15-.37.75.75,0,0,1,.69.45,2,2,0,0,1,.1,1.26l-.14.08a2.08,2.08,0,0,0-.1-1.12.61.61,0,0,0-.59-.42,1.25,1.25,0,0,0-.89.51,5.81,5.81,0,0,0-.87,1.32,9.31,9.31,0,0,0-.65,1.75,7.35,7.35,0,0,0-.25,1.8A1.71,1.71,0,0,0,97,57,.36.36,0,0,0,97.33,57.24Zm3.28-6.44.62-.06a2.38,2.38,0,0,0,.57-.13l-1.62,5.75c0,.08,0,.18-.08.31a.65.65,0,0,0,0,.34.26.26,0,0,0,.27.16.7.7,0,0,0,.51-.29,3.25,3.25,0,0,0,.49-1l.16-.48h.25l-.33,1a2.11,2.11,0,0,1-.7,1.06,1.43,1.43,0,0,1-.79.29.77.77,0,0,1-.72-.34,1,1,0,0,1-.09-.69c0-.27.11-.53.18-.8Z" style="fill:#1d1d1b"/><path d="M106.59,56.37c-.08.29-.06.5.06.62a.58.58,0,0,0,.46.19.9.9,0,0,0,.58-.25,2.55,2.55,0,0,0,.57-1l.18-.51h.25l-.27.82a2.32,2.32,0,0,1-.73,1.16,1.78,1.78,0,0,1-1,.31,1,1,0,0,1-1-.51,1.83,1.83,0,0,1,0-1.31l2-7,.62,0a2.78,2.78,0,0,0,.55-.13Zm3.3-5.57,0,.26h-4l.06-.26Z" style="fill:#1d1d1b"/><path d="M112.75,57.28a.79.79,0,0,0,.23.09,1.64,1.64,0,0,0,.37,0,1.33,1.33,0,0,0,.94-.34,1.3,1.3,0,0,0,.37-1,2.26,2.26,0,0,0-.15-.8,4.11,4.11,0,0,0-.53-.91c-.2-.28-.39-.57-.57-.86a1.91,1.91,0,0,1-.27-1,1.7,1.7,0,0,1,.59-1.34,2.1,2.1,0,0,1,1.42-.51,2.64,2.64,0,0,1,.74.1,1.25,1.25,0,0,1,.61.33,1,1,0,0,1,.24.71.87.87,0,0,1-.13.42.48.48,0,0,1-.47.25.49.49,0,0,1-.36-.15.5.5,0,0,1-.16-.39,1,1,0,0,1,.1-.45A1.76,1.76,0,0,1,116,51a1.23,1.23,0,0,0-.65-.15,1.11,1.11,0,0,0-.8.32,1.22,1.22,0,0,0-.33.91,1.28,1.28,0,0,0,.21.75l.57.88a7.94,7.94,0,0,1,.55.95,2.11,2.11,0,0,1,.22,1,1.9,1.9,0,0,1-.3,1.06,2.11,2.11,0,0,1-.82.72,2.42,2.42,0,0,1-1.11.26,2.65,2.65,0,0,1-.85-.13,1.49,1.49,0,0,1-.66-.41,1.06,1.06,0,0,1-.25-.75.82.82,0,0,1,.11-.38.42.42,0,0,1,.4-.2.45.45,0,0,1,.44.25,1.2,1.2,0,0,1,.13.57,2.05,2.05,0,0,1,0,.37C112.78,57.09,112.77,57.19,112.75,57.28Z" style="fill:#1d1d1b"/></g></g></svg>