<svg xmlns="http://www.w3.org/2000/svg" viewBox="0 0 142.02 66.83"><g id="Layer_2" data-name="Layer 2"><g id="Layer_1-2" data-name="Layer 1"><path d="M3.06,23.88V42.6H0V.6H13.62C22.08.6,29.7,3.54,29.7,12.24S22.08,23.88,13.62,23.88Zm11-.66c7.2,0,12.12-3.66,12.12-11s-4.92-11-12.12-11h-11v22Z" style="fill:#1d1d1b"/><path d="M45.78,42.6H42.72V.6h3.06Z" style="fill:#1d1d1b"/><path d="M96.48.6h.66V43.2H96.9L64.2,5V42.6h-.66V0h.24l32.7,38.16Z" style="fill:#1d1d1b"/><path d="M114.9.6h26.52v.66H118V20.7h17.7v.66H118V41.94H142v.66H114.9Z" style="fill:#1d1d1b"/><path d="M15.54,66.83V57.47H16v5.1h0v4.26Zm2.77-2.7a2.38,2.38,0,0,1-1.46-.46,2.8,2.8,0,0,1-.91-1.23,4.95,4.95,0,0,1,0-3.5,2.73,2.73,0,0,1,.94-1.21,2.52,2.52,0,0,1,1.53-.44,2.43,2.43,0,0,1,1.48.45A2.82,2.82,0,0,1,20.81,59a4.5,4.5,0,0,1,.32,1.72,4.59,4.59,0,0,1-.32,1.75,2.88,2.88,0,0,1-.95,1.23A2.54,2.54,0,0,1,18.31,64.13Zm0-.51a2.07,2.07,0,0,0,1.26-.38,2.35,2.35,0,0,0,.76-1.05,4.14,4.14,0,0,0,.26-1.5,4.07,4.07,0,0,0-.25-1.48,2.3,2.3,0,0,0-.75-1,2.36,2.36,0,0,0-2.55,0,2.25,2.25,0,0,0-.77,1,4.46,4.46,0,0,0,0,3A2.29,2.29,0,0,0,17,63.24,2.08,2.08,0,0,0,18.31,63.62Z" style="fill:#1d1d1b"/><path d="M24.85,64V57.47h.47V59l-.16-.2a2.54,2.54,0,0,1,.26-.49,2,2,0,0,1,.31-.37,1.62,1.62,0,0,1,.62-.4,2.44,2.44,0,0,1,.73-.15,1.67,1.67,0,0,1,.65.07V58a2.66,2.66,0,0,0-.85,0,1.53,1.53,0,0,0-.84.42,1.72,1.72,0,0,0-.48.73,3.14,3.14,0,0,0-.18.86c0,.29,0,.57,0,.83V64Z" style="fill:#1d1d1b"/><path d="M33.76,64.13a2.92,2.92,0,0,1-1.59-.42,2.69,2.69,0,0,1-1-1.18,4.81,4.81,0,0,1,0-3.65,2.63,2.63,0,0,1,1-1.18,3.25,3.25,0,0,1,3.18,0,2.76,2.76,0,0,1,1,1.21,4.89,4.89,0,0,1,.35,1.93h-.54v-.17a3.47,3.47,0,0,0-.66-2.14,2.14,2.14,0,0,0-1.75-.75,2.2,2.2,0,0,0-1.79.77,3.93,3.93,0,0,0,0,4.3,2.19,2.19,0,0,0,1.79.76,2.51,2.51,0,0,0,1.4-.38,2.62,2.62,0,0,0,1-1.08l.42.24a3,3,0,0,1-1.12,1.28A3.12,3.12,0,0,1,33.76,64.13Zm-2.65-3.28v-.5H36.4v.5Z" style="fill:#1d1d1b"/><path d="M40.25,64V57.47h.46v1.32h0V64Zm3.85,0V59.57a1.88,1.88,0,0,0-.46-1.34,1.61,1.61,0,0,0-1.21-.49,1.55,1.55,0,0,0-1.22.52,2,2,0,0,0-.47,1.38l-.44-.19a2.19,2.19,0,0,1,.28-1.12,2,2,0,0,1,.78-.76,2.2,2.2,0,0,1,1.13-.28,2.25,2.25,0,0,1,1,.23,1.83,1.83,0,0,1,.78.71,2.46,2.46,0,0,1,.29,1.25V64Zm3.84,0V59.48a1.71,1.71,0,0,0-.47-1.27,1.62,1.62,0,0,0-1.17-.47,1.85,1.85,0,0,0-.78.18,1.52,1.52,0,0,0-.66.58,2.09,2.09,0,0,0-.27,1.14h-.44a2.34,2.34,0,0,1,.25-1.24,1.88,1.88,0,0,1,.78-.82,2.21,2.21,0,0,1,1.15-.29,2.12,2.12,0,0,1,1.52.57,2.1,2.1,0,0,1,.59,1.59V64Z" style="fill:#1d1d1b"/><path d="M52.53,56.07v-.76H53v.76Zm0,7.88V57.47H53V64Z" style="fill:#1d1d1b"/><path d="M59.75,64.09a2.94,2.94,0,0,1-.91-.14,2.16,2.16,0,0,1-.73-.4,2.27,2.27,0,0,1-.54-.64,3,3,0,0,1-.34-.86A4.93,4.93,0,0,1,57.12,61V57.47h.5V60.9a4.71,4.71,0,0,0,.14,1.2,2.36,2.36,0,0,0,.42.84,1.74,1.74,0,0,0,.67.5,2.49,2.49,0,0,0,.9.16,2.25,2.25,0,0,0,1-.21,1.86,1.86,0,0,0,.67-.57,2.47,2.47,0,0,0,.38-.82,4.07,4.07,0,0,0,.12-1l.47,0a3.76,3.76,0,0,1-.37,1.8,2.27,2.27,0,0,1-1,1A2.78,2.78,0,0,1,59.75,64.09ZM62,64V62.63h0V57.47h.5V64Z" style="fill:#1d1d1b"/><path d="M66.51,64V57.47H67v1.32h0V64Zm3.86,0V59.57a1.89,1.89,0,0,0-.47-1.34,1.6,1.6,0,0,0-1.2-.49,1.55,1.55,0,0,0-1.22.52A1.93,1.93,0,0,0,67,59.64l-.45-.19a2.2,2.2,0,0,1,.29-1.12,1.94,1.94,0,0,1,.77-.76,2.24,2.24,0,0,1,1.14-.28,2.28,2.28,0,0,1,1,.23,1.76,1.76,0,0,1,.77.71,2.36,2.36,0,0,1,.3,1.25V64Zm3.84,0V59.48a1.68,1.68,0,0,0-.48-1.27,1.59,1.59,0,0,0-1.17-.47,1.84,1.84,0,0,0-.77.18,1.47,1.47,0,0,0-.66.58,2.09,2.09,0,0,0-.27,1.14h-.44a2.34,2.34,0,0,1,.25-1.24,1.88,1.88,0,0,1,.78-.82,2.19,2.19,0,0,1,1.15-.29,2,2,0,0,1,2.11,2.16V64Z" style="fill:#1d1d1b"/><path d="M86.09,64.13a2.84,2.84,0,0,1-1.62-.44,2.56,2.56,0,0,1-1-1.2,4.65,4.65,0,0,1,0-3.59,2.65,2.65,0,0,1,1-1.19,3.26,3.26,0,0,1,3.22,0,2.33,2.33,0,0,1,1,1.17l-.48.21a2.08,2.08,0,0,0-.83-1,2.41,2.41,0,0,0-1.29-.34,2.27,2.27,0,0,0-1.35.37,2.18,2.18,0,0,0-.8,1,4.12,4.12,0,0,0-.28,1.52,3.42,3.42,0,0,0,.63,2.11,2.09,2.09,0,0,0,1.8.8,2.42,2.42,0,0,0,1.26-.33,2.16,2.16,0,0,0,.85-1l.49.21a2.85,2.85,0,0,1-1.06,1.18A2.9,2.9,0,0,1,86.09,64.13Z" style="fill:#1d1d1b"/><path d="M94.77,64.13a2.88,2.88,0,0,1-1.62-.44,2.78,2.78,0,0,1-1-1.21,4.36,4.36,0,0,1-.34-1.79,4.28,4.28,0,0,1,.35-1.78,2.71,2.71,0,0,1,1-1.2,2.94,2.94,0,0,1,1.6-.42,2.89,2.89,0,0,1,1.63.43,2.75,2.75,0,0,1,1,1.2,4.33,4.33,0,0,1,.34,1.77,4.51,4.51,0,0,1-.34,1.8,2.66,2.66,0,0,1-1,1.2A2.88,2.88,0,0,1,94.77,64.13Zm0-.51a2.13,2.13,0,0,0,1.83-.81,3.48,3.48,0,0,0,.6-2.12,3.41,3.41,0,0,0-.6-2.11,2.15,2.15,0,0,0-1.83-.79,2.29,2.29,0,0,0-1.35.37,2.26,2.26,0,0,0-.81,1,4.1,4.1,0,0,0-.26,1.5A3.43,3.43,0,0,0,93,62.82,2.14,2.14,0,0,0,94.77,63.62Z" style="fill:#1d1d1b"/><path d="M103.34,64.13a2.6,2.6,0,0,1-1.25-.27,1.86,1.86,0,0,1-.75-.69,1.91,1.91,0,0,1-.24-.94,1.63,1.63,0,0,1,.25-.94,1.79,1.79,0,0,1,.65-.6,3.52,3.52,0,0,1,.86-.31c.38-.07.78-.14,1.21-.2l1.19-.15.82-.09-.18.12a2.6,2.6,0,0,0-.42-1.71,1.92,1.92,0,0,0-1.57-.56,2.2,2.2,0,0,0-1.32.36,2,2,0,0,0-.69,1.12l-.55-.15a2.26,2.26,0,0,1,.88-1.37,2.93,2.93,0,0,1,1.7-.46,2.87,2.87,0,0,1,1.5.36,1.92,1.92,0,0,1,.82,1,3.67,3.67,0,0,1,.12.58c0,.23,0,.45,0,.67V64h-.47V62.17h.24a2.44,2.44,0,0,1-1,1.44A3.2,3.2,0,0,1,103.34,64.13Zm0-.51a2.86,2.86,0,0,0,1.24-.25,2.27,2.27,0,0,0,.87-.73,2.6,2.6,0,0,0,.42-1.14,5.55,5.55,0,0,0,.05-.72v-.55l.26.2-.88.08-1.18.13c-.42.06-.79.13-1.13.21a2.7,2.7,0,0,0-.61.23,1.46,1.46,0,0,0-.52.44,1.16,1.16,0,0,0-.21.72,1.45,1.45,0,0,0,.15.63,1.37,1.37,0,0,0,.53.54A2,2,0,0,0,103.32,63.62Z" style="fill:#1d1d1b"/><path d="M109.64,58v-.5h4.07V58Zm4.07,6a3.47,3.47,0,0,1-1,.08,2.1,2.1,0,0,1-.85-.23,1.26,1.26,0,0,1-.55-.61,1.9,1.9,0,0,1-.17-.64c0-.22,0-.47,0-.75V55.67h.5V61.8c0,.28,0,.5,0,.68a1.31,1.31,0,0,0,.12.48.94.94,0,0,0,.69.53,3.36,3.36,0,0,0,1.22,0Z" style="fill:#1d1d1b"/><path d="M119.67,64.11a3.39,3.39,0,0,1-1.82-.45,2,2,0,0,1-.9-1.27l.52-.1a1.55,1.55,0,0,0,.76,1,2.75,2.75,0,0,0,1.46.36,2.37,2.37,0,0,0,1.4-.38,1.21,1.21,0,0,0,.52-1,1,1,0,0,0-.16-.58,1.32,1.32,0,0,0-.61-.41,11.07,11.07,0,0,0-1.33-.43,9.4,9.4,0,0,1-1.44-.49,1.77,1.77,0,0,1-.72-.53,1.23,1.23,0,0,1-.21-.73,1.39,1.39,0,0,1,.31-.91,1.93,1.93,0,0,1,.84-.62,3.24,3.24,0,0,1,1.25-.22,3.49,3.49,0,0,1,1.29.23,2.34,2.34,0,0,1,.92.66,1.79,1.79,0,0,1,.41,1l-.52.09a1.54,1.54,0,0,0-.69-1.07,2.54,2.54,0,0,0-1.44-.39,2.27,2.27,0,0,0-1.33.33,1,1,0,0,0-.51.89.86.86,0,0,0,.17.53,1.5,1.5,0,0,0,.61.4,9.37,9.37,0,0,0,1.2.37,8.68,8.68,0,0,1,1.52.5,1.77,1.77,0,0,1,.76.59,1.53,1.53,0,0,1,.22.83,1.63,1.63,0,0,1-.66,1.38A2.92,2.92,0,0,1,119.67,64.11Z" style="fill:#1d1d1b"/></g></g></svg>